<svg width="40" height="40" viewBox="0 0 40 40" fill="none" xmlns="http://www.w3.org/2000/svg">
<rect x="0.5" y="0.5" width="39" height="39" rx="19.5" stroke="white"/>
<path d="M20.0002 9.99951C22.7172 9.99951 23.0562 10.0095 24.1222 10.0595C25.1872 10.1095 25.9122 10.2765 26.5502 10.5245C27.2102 10.7785 27.7662 11.1225 28.3222 11.6775C28.8307 12.1774 29.2242 12.7821 29.4752 13.4495C29.7222 14.0865 29.8902 14.8125 29.9402 15.8775C29.9872 16.9435 30.0002 17.2825 30.0002 19.9995C30.0002 22.7165 29.9902 23.0555 29.9402 24.1215C29.8902 25.1865 29.7222 25.9115 29.4752 26.5495C29.2249 27.2173 28.8314 27.8221 28.3222 28.3215C27.8222 28.8298 27.2176 29.2233 26.5502 29.4745C25.9132 29.7215 25.1872 29.8895 24.1222 29.9395C23.0562 29.9865 22.7172 29.9995 20.0002 29.9995C17.2832 29.9995 16.9442 29.9895 15.8782 29.9395C14.8132 29.8895 14.0882 29.7215 13.4502 29.4745C12.7826 29.224 12.1778 28.8305 11.6782 28.3215C11.1697 27.8217 10.7762 27.217 10.5252 26.5495C10.2772 25.9125 10.1102 25.1865 10.0602 24.1215C10.0132 23.0555 10.0002 22.7165 10.0002 19.9995C10.0002 17.2825 10.0102 16.9435 10.0602 15.8775C10.1102 14.8115 10.2772 14.0875 10.5252 13.4495C10.7755 12.7817 11.169 12.1768 11.6782 11.6775C12.1779 11.1687 12.7827 10.7752 13.4502 10.5245C14.0882 10.2765 14.8122 10.1095 15.8782 10.0595C16.9442 10.0125 17.2832 9.99951 20.0002 9.99951ZM20.0002 14.9995C18.6742 14.9995 17.4024 15.5263 16.4647 16.464C15.527 17.4017 15.0002 18.6734 15.0002 19.9995C15.0002 21.3256 15.527 22.5974 16.4647 23.535C17.4024 24.4727 18.6742 24.9995 20.0002 24.9995C21.3263 24.9995 22.5981 24.4727 23.5358 23.535C24.4735 22.5974 25.0002 21.3256 25.0002 19.9995C25.0002 18.6734 24.4735 17.4017 23.5358 16.464C22.5981 15.5263 21.3263 14.9995 20.0002 14.9995ZM26.5002 14.7495C26.5002 14.418 26.3685 14.1 26.1341 13.8656C25.8997 13.6312 25.5818 13.4995 25.2502 13.4995C24.9187 13.4995 24.6008 13.6312 24.3664 13.8656C24.1319 14.1 24.0002 14.418 24.0002 14.7495C24.0002 15.081 24.1319 15.399 24.3664 15.6334C24.6008 15.8678 24.9187 15.9995 25.2502 15.9995C25.5818 15.9995 25.8997 15.8678 26.1341 15.6334C26.3685 15.399 26.5002 15.081 26.5002 14.7495ZM20.0002 16.9995C20.7959 16.9995 21.559 17.3156 22.1216 17.8782C22.6842 18.4408 23.0002 19.2039 23.0002 19.9995C23.0002 20.7952 22.6842 21.5582 22.1216 22.1208C21.559 22.6834 20.7959 22.9995 20.0002 22.9995C19.2046 22.9995 18.4415 22.6834 17.8789 22.1208C17.3163 21.5582 17.0002 20.7952 17.0002 19.9995C17.0002 19.2039 17.3163 18.4408 17.8789 17.8782C18.4415 17.3156 19.2046 16.9995 20.0002 16.9995Z" fill="white"/>
</svg>
