<svg width="95" height="47" viewBox="0 0 95 47" fill="none" xmlns="http://www.w3.org/2000/svg">
<path d="M45.0222 1L29.2984 32.4254L26.1492 38.7016L23 45L19.873 38.7016L16.7238 32.4254L13.5746 26.127L16.7238 19.8508L19.873 13.5746L23 7.27621H16.7238L13.5746 13.5524L10.4254 19.8508L7.29839 13.5746L4.14919 7.27621L1 1H7.29839L10.4254 7.27621L13.5746 1H32.4476L23 19.8508L19.873 26.127L23.0222 32.4698L26.1936 26.2157L38.9899 1H45.0222Z" fill="#CD9A59" stroke="#CC9958" stroke-miterlimit="10"/>
<path d="M48.9476 23L44.4678 9.64917H47.3286L50.5887 19.9173L53.8266 9.64917H56.7097L52.2077 23H48.9476Z" fill="#213C75"/>
<path d="M58.7057 12.3105C58.3065 12.3105 57.9516 12.1552 57.6411 11.8669C57.3528 11.5786 57.1976 11.2238 57.1976 10.8024C57.1976 10.4032 57.3528 10.0484 57.6411 9.73788C57.9294 9.4274 58.2843 9.27216 58.7057 9.27216C59.127 9.27216 59.4819 9.4274 59.7923 9.73788C60.0807 10.0484 60.2359 10.4032 60.2359 10.8024C60.2359 11.2016 60.0807 11.5564 59.7923 11.8669C59.4819 12.1552 59.127 12.3105 58.7057 12.3105ZM57.4859 23V13.4637H59.9476V23H57.4859Z" fill="#213C75"/>
<path d="M69.4173 9.64917H71.879V23H69.4173V21.8689C68.6855 22.8004 67.6653 23.2661 66.3347 23.2661C65.0484 23.2661 63.9617 22.7782 63.0524 21.8024C62.1431 20.8266 61.6996 19.629 61.6996 18.2318C61.6996 16.8347 62.1431 15.6371 63.0524 14.6613C63.9617 13.6855 65.0484 13.1976 66.3347 13.1976C67.6653 13.1976 68.7077 13.6633 69.4173 14.5947V9.64917ZM64.8931 20.1613C65.4032 20.6713 66.0242 20.9153 66.8004 20.9153C67.5544 20.9153 68.1976 20.6713 68.6855 20.1613C69.1734 19.6512 69.4395 19.008 69.4395 18.2318C69.4395 17.4334 69.1956 16.7903 68.6855 16.3024C68.1976 15.7923 67.5544 15.5484 66.8004 15.5484C66.0464 15.5484 65.4032 15.7923 64.8931 16.3024C64.3831 16.8125 64.1391 17.4556 64.1391 18.2318C64.1391 19.008 64.3831 19.6512 64.8931 20.1613Z" fill="#213C75"/>
<path d="M76.2258 19.2298C76.5585 20.4274 77.4456 21.0262 78.9093 21.0262C79.8407 21.0262 80.5726 20.7157 81.0383 20.0726L83.0121 21.2258C82.0806 22.5786 80.6835 23.2661 78.8649 23.2661C77.2903 23.2661 76.0262 22.8004 75.0726 21.8246C74.1189 20.8709 73.631 19.6734 73.631 18.2097C73.631 16.7681 74.0968 15.5705 75.0504 14.6169C75.9818 13.6633 77.2016 13.1754 78.6653 13.1754C80.0625 13.1754 81.2157 13.6633 82.125 14.6169C83.0343 15.5927 83.4778 16.7681 83.4778 18.2097C83.4778 18.5201 83.4556 18.875 83.3891 19.2298H76.2258ZM76.1814 17.3226H81.0383C80.9052 16.6794 80.6169 16.1915 80.1734 15.881C79.7298 15.5705 79.2419 15.4153 78.6653 15.4153C78 15.4153 77.4677 15.5927 77.0242 15.9254C76.6028 16.2359 76.3145 16.7238 76.1814 17.3226Z" fill="#213C75"/>
<path d="M93.2581 21.8024C92.2823 22.7782 91.0847 23.2661 89.6653 23.2661C88.246 23.2661 87.0706 22.7782 86.0948 21.8024C85.1189 20.8266 84.631 19.629 84.631 18.2318C84.631 16.8347 85.1189 15.6371 86.0948 14.6613C87.0706 13.6855 88.2681 13.1976 89.6653 13.1976C91.0625 13.1976 92.2823 13.6855 93.2581 14.6613C94.2339 15.6371 94.7218 16.8347 94.7218 18.2318C94.7218 19.629 94.2339 20.8266 93.2581 21.8024ZM87.8468 20.1169C88.3347 20.6048 88.9556 20.871 89.6875 20.871C90.4193 20.871 91.0403 20.627 91.5282 20.1169C92.0161 19.629 92.2823 18.9859 92.2823 18.2318C92.2823 17.4778 92.0383 16.8347 91.5282 16.3468C91.0403 15.8589 90.4193 15.5927 89.6875 15.5927C88.9556 15.5927 88.3347 15.8367 87.8468 16.3468C87.3589 16.8347 87.1149 17.4778 87.1149 18.2318C87.1149 18.9859 87.3589 19.6068 87.8468 20.1169Z" fill="#213C75"/>
<path d="M40.254 39.1008H45.3548V41.629H37.6371V28.2782H40.2762V39.1008H40.254Z" fill="#213C75"/>
<path d="M48.5927 37.8589C48.9254 39.0565 49.8125 39.6552 51.2762 39.6552C52.2077 39.6552 52.9395 39.3448 53.4052 38.7016L55.379 39.8548C54.4476 41.2077 53.0504 41.8952 51.2319 41.8952C49.6573 41.8952 48.3931 41.4073 47.4395 40.4536C46.4859 39.5 45.998 38.3024 45.998 36.8387C45.998 35.3972 46.4637 34.1996 47.4173 33.246C48.3488 32.2923 49.5686 31.8044 51.0323 31.8044C52.4294 31.8044 53.5827 32.2923 54.4919 33.246C55.4012 34.2218 55.8448 35.3972 55.8448 36.8387C55.8448 37.1492 55.8226 37.504 55.7561 37.8589H48.5927ZM48.5706 35.9516H53.4274C53.2944 35.3085 53.0061 34.8206 52.5625 34.5101C52.119 34.1996 51.6311 34.0444 51.0544 34.0444C50.3891 34.0444 49.8569 34.2218 49.4133 34.5544C48.9919 34.8649 48.7036 35.3528 48.5706 35.9516Z" fill="#213C75"/>
<path d="M59.4819 34.7984C59.4819 35.0424 59.6593 35.2641 59.9919 35.4194C60.3246 35.5746 60.746 35.7077 61.2117 35.8408C61.6996 35.9517 62.1875 36.1069 62.6532 36.3065C63.1411 36.4839 63.5403 36.7944 63.873 37.2379C64.2057 37.6815 64.3831 38.2137 64.3831 38.8569C64.3831 39.8327 64.0282 40.5867 63.2964 41.119C62.5645 41.6512 61.6553 41.9174 60.5686 41.9174C58.6169 41.9174 57.2863 41.1633 56.5544 39.6553L58.6835 38.4577C58.9718 39.2783 59.5927 39.6996 60.5464 39.6996C61.4335 39.6996 61.8548 39.4335 61.8548 38.8791C61.8548 38.6351 61.6774 38.4133 61.3448 38.2581C61.0121 38.1029 60.5907 37.9476 60.125 37.8367C59.6371 37.7037 59.1492 37.5484 58.6835 37.371C58.1956 37.1714 57.7964 36.8831 57.4637 36.4617C57.1311 36.0404 56.9536 35.5303 56.9536 34.9093C56.9536 33.9779 57.3085 33.2238 57.996 32.6916C58.6835 32.1593 59.5484 31.871 60.5907 31.871C61.3669 31.871 62.0766 32.0484 62.6976 32.4033C63.3407 32.7581 63.8286 33.246 64.2057 33.9113L62.0988 35.0646C61.7883 34.4214 61.2782 34.0887 60.5686 34.0887C60.2581 34.0887 59.9919 34.1553 59.7702 34.2883C59.5928 34.3549 59.4819 34.5545 59.4819 34.7984Z" fill="#213C75"/>
<path d="M67.7762 34.7984C67.7762 35.0424 67.9536 35.2641 68.2863 35.4194C68.6189 35.5746 69.0403 35.7077 69.506 35.8408C69.9939 35.9517 70.4819 36.1069 70.9476 36.3065C71.4355 36.4839 71.8347 36.7944 72.1673 37.2379C72.5 37.6815 72.6774 38.2137 72.6774 38.8569C72.6774 39.8327 72.3226 40.5867 71.5907 41.119C70.8589 41.6512 69.9496 41.9174 68.8629 41.9174C66.9113 41.9174 65.5806 41.1633 64.8488 39.6553L66.9778 38.4577C67.2661 39.2783 67.8871 39.6996 68.8407 39.6996C69.7278 39.6996 70.1492 39.4335 70.1492 38.8791C70.1492 38.6351 69.9718 38.4133 69.6391 38.2581C69.3064 38.1029 68.8851 37.9476 68.4194 37.8367C67.9314 37.7037 67.4435 37.5484 66.9778 37.371C66.4899 37.1714 66.0907 36.8831 65.7581 36.4617C65.4254 36.0404 65.248 35.5303 65.248 34.9093C65.248 33.9779 65.6028 33.2238 66.2903 32.6916C66.9778 32.1593 67.8427 31.871 68.8851 31.871C69.6613 31.871 70.371 32.0484 70.9919 32.4033C71.6351 32.7581 72.123 33.246 72.5 33.9113L70.3931 35.0646C70.0827 34.4214 69.5726 34.0887 68.8629 34.0887C68.5524 34.0887 68.2863 34.1553 68.0645 34.2883C67.8649 34.3549 67.7762 34.5545 67.7762 34.7984Z" fill="#213C75"/>
<path d="M82.2581 40.4315C81.2823 41.4073 80.0847 41.8952 78.6653 41.8952C77.246 41.8952 76.0706 41.4073 75.0948 40.4315C74.1189 39.4557 73.631 38.2581 73.631 36.8609C73.631 35.4416 74.1189 34.2662 75.0948 33.2904C76.0706 32.3146 77.2681 31.8267 78.6653 31.8267C80.0625 31.8267 81.2823 32.3146 82.2581 33.2904C83.2339 34.2662 83.7218 35.4638 83.7218 36.8609C83.7218 38.2581 83.2339 39.4557 82.2581 40.4315ZM76.8246 38.746C77.3125 39.2339 77.9335 39.5 78.6653 39.5C79.3972 39.5 80.0181 39.2561 80.506 38.746C80.9939 38.2581 81.2601 37.615 81.2601 36.8609C81.2601 36.1069 81.0161 35.4638 80.506 34.9758C80.0181 34.4879 79.3972 34.2218 78.6653 34.2218C77.9335 34.2218 77.3125 34.4658 76.8246 34.9758C76.3367 35.4638 76.0927 36.1069 76.0927 36.8609C76.0927 37.615 76.3367 38.2359 76.8246 38.746Z" fill="#213C75"/>
<path d="M90.7742 31.8267C91.8166 31.8267 92.6815 32.1815 93.369 32.869C94.0565 33.5787 94.3891 34.5323 94.3891 35.7742V41.6291H91.9274V36.0847C91.9274 35.4416 91.75 34.9537 91.4174 34.621C91.0847 34.2884 90.619 34.1109 90.0424 34.1109C89.3992 34.1109 88.8891 34.3105 88.5121 34.7097C88.1351 35.1089 87.9355 35.6855 87.9355 36.4839V41.6291H85.4738V32.0928H87.9355V33.1573C88.5343 32.2702 89.4657 31.8267 90.7742 31.8267Z" fill="#213C75"/>
</svg>
