<svg width="770" height="114" viewBox="0 0 770 114" fill="none" xmlns="http://www.w3.org/2000/svg">
<g clip-path="url(#clip0)">
<path d="M355.659 17.2759C353.278 17.2759 351.247 16.4314 349.637 14.8128C347.956 13.1943 347.116 11.1535 347.116 8.7608C347.116 6.22739 347.956 4.25696 349.567 2.63839C351.247 1.01982 353.278 0.245728 355.659 0.245728C358.11 0.245728 360.141 1.01982 361.821 2.63839C363.432 4.25696 364.272 6.29776 364.272 8.7608C364.272 11.1535 363.432 13.1943 361.821 14.8128C360.141 16.4314 358.11 17.2759 355.659 17.2759ZM362.382 88.915H348.937V27.691H362.382V88.915Z" fill="#011842"/>
<path d="M407.407 26.2133C414.69 26.2133 420.502 28.3948 424.914 32.7579C429.325 37.1914 431.496 43.0323 431.496 50.351V88.9151H418.121V54.7845C418.121 50.0695 416.791 46.2694 414.06 43.3841C411.329 40.5692 407.617 39.1618 402.996 39.1618C398.164 39.1618 394.242 40.6396 391.301 43.5953C388.36 46.5509 386.89 50.351 386.89 55.066V88.9151H373.445V27.6911H386.89V36.1358C391.721 29.5208 398.584 26.2133 407.407 26.2133Z" fill="#011842"/>
<path d="M489.477 36.7688V27.6204H502.922V82.2294C502.922 91.5186 500.051 98.9781 494.379 104.678C488.637 110.308 481.074 113.123 471.691 113.123C463.848 113.123 457.196 111.082 451.804 107.001C446.412 102.919 442.84 97.2891 441.09 90.2519H454.815C455.935 93.489 458.036 96.0224 461.047 97.8521C464.058 99.7522 467.629 100.667 471.691 100.667C477.083 100.667 481.424 98.9781 484.645 95.5298C487.867 92.0816 489.477 87.5777 489.477 81.9479V78.0071C484.225 85.0443 477.083 88.563 468.119 88.563C459.506 88.563 452.364 85.5369 446.692 79.5553C440.95 73.644 438.079 66.1845 438.079 57.2472C438.079 48.3099 440.95 40.8504 446.692 34.7984C452.364 28.8871 459.506 25.8611 468.119 25.8611C477.153 26.2129 484.225 29.7316 489.477 36.7688ZM470.78 76.5293C476.102 76.5293 480.584 74.6996 484.155 71.1106C487.727 67.5216 489.547 62.9474 489.547 57.5287C489.547 52.11 487.727 47.6062 484.155 43.9468C480.584 40.2874 476.102 38.4578 470.78 38.4578C465.388 38.4578 460.907 40.2874 457.266 43.9468C453.624 47.6062 451.804 52.11 451.804 57.5287C451.804 62.877 453.624 67.3808 457.266 71.0402C460.837 74.6996 465.318 76.5293 470.78 76.5293Z" fill="#011842"/>
<path d="M548.649 26.2127C557.192 26.2127 564.334 29.2387 570.076 35.3611C575.818 41.4835 578.689 49.1541 578.689 58.2322C578.689 67.3806 575.818 74.9808 570.076 81.1736C564.334 87.296 557.192 90.3924 548.649 90.3924C539.615 90.3924 532.473 86.733 527.151 79.4143V88.9146H513.706V2.35645H527.151V37.1204C532.473 29.8017 539.615 26.2127 548.649 26.2127ZM532.613 71.8844C536.254 75.5438 540.736 77.3735 546.058 77.3735C551.38 77.3735 555.861 75.5438 559.502 71.8844C563.074 68.2251 564.894 63.6509 564.894 58.2322C564.894 52.8135 563.074 48.3097 559.502 44.6503C555.861 40.9909 551.38 39.1612 546.058 39.1612C540.736 39.1612 536.254 40.9909 532.613 44.6503C528.971 48.3097 527.151 52.8135 527.151 58.2322C527.151 63.7212 528.971 68.2251 532.613 71.8844Z" fill="#011842"/>
<path d="M615.173 90.3929C605.789 90.3929 598.016 87.2965 591.854 81.1741C585.622 75.0517 582.541 67.3811 582.541 58.2327C582.541 49.1547 585.622 41.4841 591.854 35.3617C598.016 29.2393 605.789 26.2133 615.173 26.2133C624.486 26.2133 632.259 29.2393 638.491 35.3617C644.724 41.4841 647.805 49.1547 647.805 58.2327C647.805 67.3811 644.724 75.0517 638.491 81.1741C632.189 87.2965 624.486 90.3929 615.173 90.3929ZM601.728 71.885C605.369 75.5443 609.851 77.374 615.173 77.374C620.495 77.374 624.976 75.5443 628.548 71.885C632.119 68.2256 633.94 63.6514 633.94 58.2327C633.94 52.814 632.119 48.3102 628.548 44.6508C624.976 40.9915 620.495 39.1618 615.173 39.1618C609.851 39.1618 605.369 40.9915 601.728 44.6508C598.086 48.3102 596.266 52.814 596.266 58.2327C596.266 63.7218 598.086 68.2256 601.728 71.885Z" fill="#011842"/>
<path d="M684.008 90.3929C674.625 90.3929 666.852 87.2965 660.69 81.1741C654.458 75.0517 651.376 67.3811 651.376 58.2327C651.376 49.1547 654.458 41.4841 660.69 35.3617C666.852 29.2393 674.625 26.2133 684.008 26.2133C693.322 26.2133 701.094 29.2393 707.327 35.3617C713.559 41.4841 716.64 49.1547 716.64 58.2327C716.64 67.3811 713.559 75.0517 707.327 81.1741C701.094 87.2965 693.322 90.3929 684.008 90.3929ZM670.563 71.885C674.205 75.5443 678.686 77.374 684.008 77.374C689.33 77.374 693.812 75.5443 697.383 71.885C700.954 68.2256 702.775 63.6514 702.775 58.2327C702.775 52.814 700.954 48.3102 697.383 44.6508C693.812 40.9915 689.33 39.1618 684.008 39.1618C678.686 39.1618 674.205 40.9915 670.563 44.6508C666.922 48.3102 665.101 52.814 665.101 58.2327C665.101 63.7218 666.922 68.2256 670.563 71.885Z" fill="#011842"/>
<path d="M322.536 58.3033C334.651 50.0697 340.603 39.3731 340.603 27.7616H325.898C325.898 36.6989 320.436 44.9325 311.262 51.4068C310.212 52.1809 309.022 52.8846 307.831 53.5883V52.2513V2.35718H294.386V88.9153H307.831V63.4405V63.0182C309.022 63.722 310.142 64.4257 311.262 65.1998C320.366 71.674 325.898 79.8373 325.898 88.8449H340.603C340.603 77.1631 334.651 66.5369 322.536 58.3033Z" fill="#011842"/>
<path d="M751.932 58.3026C764.047 50.069 769.999 39.3724 769.999 27.7609H755.293C755.293 36.6982 749.831 44.9318 740.658 51.4061C739.608 52.1802 738.417 52.8839 737.227 53.5876V52.2505V2.35645H723.782V88.9146H737.227V63.4397V63.0175C738.417 63.7212 739.538 64.425 740.658 65.1991C749.761 71.6733 755.293 79.8365 755.293 88.8442H769.999C769.999 77.1624 764.047 66.5361 751.932 58.3026Z" fill="#011842"/>
<path d="M219.319 85.0448H54.0593V113.194H219.319V85.0448Z" fill="#FFC580"/>
<path d="M273.449 0.245728L263.086 28.817C223.591 31.3504 187.388 46.1286 158.188 69.4219C154.756 72.1664 151.395 74.9813 148.174 78.0073H126.956C123.735 75.0517 120.374 72.1664 116.943 69.4219C87.3918 45.7767 50.5584 30.9281 10.2937 28.7466L0 0.245728C52.239 0.245728 100.206 18.8944 137.6 49.9287C174.573 19.2463 221.841 0.667962 273.449 0.245728Z" fill="#FFC580"/>
</g>
<defs>
<clipPath id="clip0">
<rect width="770" height="112.948" fill="white" transform="translate(0 0.245728)"/>
</clipPath>
</defs>
</svg>
